# Blender 4.4.3
# www.blender.org
mtllib House.mtl
o Cube
v -4.415461 -4.846439 -4.686048
v -4.415461 1.585261 -4.686048
v 4.514680 -4.846439 -4.686048
v 4.514680 1.585261 -4.686048
v -4.415461 -4.846439 1.745651
v -4.415461 1.585261 1.745651
v 4.514680 -4.846439 1.745651
v 4.514680 1.585261 1.745651
v 0.049610 -4.846439 -4.686048
v 0.049610 4.934508 -4.686048
v 0.049610 -4.846439 1.745651
v 0.049610 4.934508 1.745651
v -4.415461 0.996282 -4.686048
v 4.514680 0.996282 -4.686048
v 4.514680 0.996282 1.745651
v -4.415461 0.996282 1.745651
v 0.049610 0.996282 1.745651
v 0.049610 0.996282 -4.686048
v 4.514680 -0.741679 -4.686048
v 4.514680 -0.741679 1.745651
v -4.415461 -0.741679 1.745651
v 0.049610 -0.741679 1.745651
v 0.049610 -0.741679 -4.686048
v -4.415461 -0.741679 -4.686048
v 3.379167 2.437009 -4.686048
v 3.379167 -4.846439 1.745651
v 3.379167 -4.846439 -4.686048
v 3.379167 2.437009 1.745651
v 3.225368 0.885512 1.745651
v 3.379167 0.996282 -4.686048
v 3.379167 -0.741679 -4.686048
v 3.225368 -0.630909 1.745651
v 1.561612 -4.846439 -4.686048
v 1.561612 3.800357 1.745651
v 1.715412 0.885512 1.745651
v 1.715412 -0.630909 1.745651
v 1.561612 3.800357 -4.686048
v 1.561612 -4.846439 1.745651
v 1.561612 0.996282 -4.686048
v 1.561612 -0.741679 -4.686048
v -1.470247 -4.846439 -4.686048
v -1.470247 3.794465 1.745651
v -1.470247 3.794465 -4.686048
v -1.470247 -4.846439 1.745651
v -1.470247 0.996282 -4.686048
v -1.643208 0.871712 1.745651
v -1.643208 -0.617108 1.745651
v -1.470247 -0.741679 -4.686048
v -3.450014 -4.846439 -4.686048
v -3.450014 2.309442 1.745651
v -3.277053 0.871712 1.745651
v -3.277053 -0.617108 1.745651
v -3.450014 2.309442 -4.686048
v -3.450014 -4.846439 1.745651
v -3.450014 0.996282 -4.686048
v -3.450014 -0.741679 -4.686048
v -1.470247 0.996282 1.745651
v -1.470247 -0.741679 1.745651
v -3.450014 0.996282 1.745651
v -3.450014 -0.741679 1.745651
v 3.379167 0.996282 1.745651
v 3.379167 -0.741679 1.745651
v 1.561612 0.996282 1.745651
v 1.561612 -0.741679 1.745651
v -2.572213 2.967880 -4.686048
v -2.572213 -4.846439 1.745651
v -2.572213 0.996282 -4.686048
v -2.572213 -0.741679 -4.686048
v -2.572213 -4.846439 -4.686048
v -2.572213 2.967880 1.745651
v -2.572213 0.996282 1.745651
v -2.572213 -0.741679 1.745651
v -2.552629 0.871712 1.745651
v -2.552629 -0.617108 1.745651
v -2.418893 3.082886 -4.686048
v -2.418893 -4.846439 1.745651
v -2.418893 0.996282 -4.686048
v -2.418893 -0.741679 -4.686048
v -2.418893 -4.846439 -4.686048
v -2.418893 3.082886 1.745651
v -2.418893 0.996282 1.745651
v -2.418893 -0.741679 1.745651
v -2.426099 0.871712 1.745651
v -2.426099 -0.617108 1.745651
v 2.314869 3.235339 -4.686048
v 2.314869 -4.846439 1.745651
v 2.314869 0.996282 -4.686048
v 2.314869 -0.741679 -4.686048
v 2.314869 -4.846439 -4.686048
v 2.314869 3.235339 1.745651
v 2.314869 0.996282 1.745651
v 2.314869 -0.741679 1.745651
v 2.341189 0.885512 1.745651
v 2.341189 -0.630909 1.745651
v 2.553133 3.056617 -4.686048
v 2.553133 -4.846439 1.745651
v 2.553133 0.996282 -4.686048
v 2.553133 -0.741679 -4.686048
v 2.553133 -4.846439 -4.686048
v 2.553133 3.056617 1.745651
v 2.553133 0.996282 1.745651
v 2.553133 -0.741679 1.745651
v 2.539130 0.885512 1.745651
v 2.539130 -0.630909 1.745651
v -4.415461 0.040793 -4.686048
v 4.514680 0.040793 -4.686048
v 4.514680 0.040793 1.745651
v -4.415461 0.040793 1.745651
v 0.049610 0.040793 1.745651
v 0.049610 0.040793 -4.686048
v 3.379167 0.040793 -4.686048
v 3.379167 0.040793 1.745651
v 1.561612 0.040793 -4.686048
v 1.561612 0.040793 1.745651
v -1.470247 0.040793 1.745651
v -1.470247 0.040793 -4.686048
v -3.450014 0.040793 -4.686048
v -3.450014 0.040793 1.745651
v -1.643208 0.053194 1.745651
v -3.277053 0.053194 1.745651
v 3.225368 0.051821 1.745651
v 1.715412 0.051821 1.745651
v -2.552629 0.053194 1.745651
v -2.572213 0.040793 -4.686048
v -2.426099 0.053194 1.745651
v -2.418893 0.040793 -4.686048
v 2.341189 0.051821 1.745651
v 2.314869 0.040793 -4.686048
v 2.539130 0.051821 1.745651
v 2.553133 0.040793 -4.686048
v -4.415461 0.196736 -4.686048
v 4.514680 0.196736 -4.686048
v 4.514680 0.196736 1.745651
v -4.415461 0.196736 1.745651
v 0.049610 0.196736 1.745651
v 0.049610 0.196736 -4.686048
v 3.379167 0.196736 -4.686048
v 3.379167 0.196736 1.745651
v 1.561612 0.196736 -4.686048
v 1.561612 0.196736 1.745651
v -1.470247 0.196736 1.745651
v -1.470247 0.196736 -4.686048
v -3.450014 0.196736 -4.686048
v -3.450014 0.196736 1.745651
v -1.643208 0.186783 1.745651
v -3.277053 0.186783 1.745651
v 3.225368 0.187885 1.745651
v 1.715412 0.187885 1.745651
v -2.552629 0.186783 1.745651
v -2.572213 0.196736 -4.686048
v -2.426099 0.186783 1.745651
v -2.418893 0.196736 -4.686048
v 2.341189 0.187885 1.745651
v 2.314869 0.196736 -4.686048
v 2.539130 0.187885 1.745651
v 2.553133 0.196736 -4.686048
v -1.643208 0.053194 1.518096
v -1.643208 -0.617108 1.518096
v -2.552629 0.871712 1.518096
v -3.277053 0.871712 1.518096
v -2.552629 -0.617108 1.518096
v -3.277053 -0.617108 1.518096
v -3.277053 0.053194 1.518096
v 3.225368 0.051821 1.518096
v 3.225368 -0.630909 1.518096
v 2.341189 0.885512 1.518096
v 1.715412 0.885512 1.518096
v 2.341189 -0.630909 1.518096
v 1.715412 -0.630909 1.518096
v 1.715412 0.051821 1.518096
v -2.552629 0.053194 1.518096
v -1.643208 0.871712 1.518096
v -2.426099 0.871712 1.518096
v -2.426099 -0.617108 1.518096
v -2.426099 0.053194 1.518096
v 2.341189 0.051821 1.518096
v 3.225368 0.885512 1.518096
v 2.539130 0.885512 1.518096
v 2.539130 -0.630909 1.518096
v 2.539130 0.051821 1.518096
v -1.643208 0.186783 1.518096
v -3.277053 0.186783 1.518096
v 3.225368 0.187885 1.518096
v 1.715412 0.187885 1.518096
v -2.552629 0.186783 1.518096
v -2.426099 0.186783 1.518096
v 2.341189 0.187885 1.518096
v 2.539130 0.187885 1.518096
v 3.379167 0.040793 2.007383
v 3.379167 -0.741679 2.007383
v 2.314869 0.996282 2.007383
v 1.561612 0.996282 2.007383
v 2.314869 -0.741679 2.007383
v 1.561612 -0.741679 2.007383
v 1.561612 0.040793 2.007383
v -1.470247 0.040793 2.007383
v -1.470247 -0.741679 2.007383
v -2.572213 0.996282 2.007383
v -3.450014 0.996282 2.007383
v -2.572213 -0.741679 2.007383
v -3.450014 -0.741679 2.007383
v -3.450014 0.040793 2.007383
v -1.643208 0.053194 2.007383
v -1.643208 -0.617108 2.007383
v -2.552629 0.871712 2.007383
v -3.277053 0.871712 2.007383
v -2.552629 -0.617108 2.007383
v -3.277053 -0.617108 2.007383
v -3.277053 0.053194 2.007383
v -1.470247 0.996282 2.007383
v -1.643208 0.871712 2.007383
v 3.225368 0.051821 2.007383
v 3.225368 -0.630909 2.007383
v 2.341189 0.885512 2.007383
v 1.715412 0.885512 2.007383
v 2.341189 -0.630909 2.007383
v 1.715412 -0.630909 2.007383
v 1.715412 0.051821 2.007383
v 3.379167 0.996282 2.007383
v 3.225368 0.885512 2.007383
v -2.418893 0.996282 2.007383
v -2.418893 -0.741679 2.007383
v -2.426099 0.871712 2.007383
v -2.426099 -0.617108 2.007383
v -2.552629 0.053194 2.007383
v -2.426099 0.053194 2.007383
v 2.553133 0.996282 2.007383
v 2.553133 -0.741679 2.007383
v 2.539130 0.885512 2.007383
v 2.539130 -0.630909 2.007383
v 2.341189 0.051821 2.007383
v 2.539130 0.051821 2.007383
v 3.379167 0.196736 2.007383
v 1.561612 0.196736 2.007383
v -1.470247 0.196736 2.007383
v -3.450014 0.196736 2.007383
v -1.643208 0.186783 2.007383
v -3.277053 0.186783 2.007383
v 3.225368 0.187885 2.007383
v 1.715412 0.187885 2.007383
v -2.552629 0.186783 2.007383
v -2.426099 0.186783 2.007383
v 2.341189 0.187885 2.007383
v 2.539130 0.187885 2.007383
vn -0.0000 -0.0000 -1.0000
vn 1.0000 -0.0000 -0.0000
vn -0.0000 -0.0000 1.0000
vn -1.0000 -0.0000 -0.0000
vn -0.0000 -1.0000 -0.0000
vn -0.6001 0.8000 -0.0000
vn 0.6001 0.8000 -0.0000
vn -0.0000 1.0000 -0.0000
vt 0.602106 0.218211
vt 0.625000 0.250000
vt 0.602106 0.250000
vt 0.602106 0.500000
vt 0.602106 0.722972
vt 0.625000 0.750000
vt 0.602106 0.750000
vt 0.602106 1.000000
vt 0.375000 0.722972
vt 0.125000 0.750000
vt 0.125000 0.722972
vt 0.875000 0.722972
vt 0.625000 0.722972
vt 0.875000 0.582671
vt 0.625000 0.625000
vt 0.625000 0.582671
vt 0.375000 0.582671
vt 0.125000 0.625000
vt 0.125000 0.582671
vt 0.602106 0.625000
vt 0.602106 0.582671
vt 0.625000 0.082451
vt 0.602106 0.125000
vt 0.602106 0.082451
vt 0.571028 0.125000
vt 0.571028 0.082451
vt 0.571028 0.625000
vt 0.571028 0.582671
vt 0.571028 1.000000
vt 0.571028 0.750000
vt 0.571028 0.722972
vt 0.571028 0.500000
vt 0.571028 0.250000
vt 0.571028 0.218211
vt 0.534552 0.218211
vt 0.375000 0.250000
vt 0.375000 0.218211
vt 0.534552 0.250000
vt 0.375000 0.500000
vt 0.534552 0.722972
vt 0.375000 0.750000
vt 0.534552 0.750000
vt 0.375000 1.000000
vt 0.534552 0.582671
vt 0.375000 0.625000
vt 0.534552 0.082451
vt 0.375000 0.125000
vt 0.375000 0.082451
vt 0.534552 0.500000
vt 0.375000 0.531789
vt 0.534552 0.195086
vt 0.375000 0.195086
vt 0.602106 0.195086
vt 0.571028 0.195086
vt 0.571028 0.531789
vt 0.625000 0.500000
vt 0.602106 0.531789
vt 0.125000 0.531789
vt 0.125000 0.500000
vt 0.875000 0.500000
vt 0.625000 0.531789
vt 0.625000 0.218211
vt 0.625000 0.167329
vt 0.602106 0.167329
vt 0.571028 0.167329
vt 0.534552 0.125000
vt 0.375000 0.167329
vt 0.534552 0.561584
vt 0.375000 0.561584
vt 0.565395 0.555306
vt 0.565395 0.536094
vt 0.625000 0.561584
vt 0.602106 0.561584
vt 0.125000 0.561584
vt 0.875000 0.561584
vt 0.534552 0.055894
vt 0.375000 0.055894
vt 0.534552 0.625000
vt 0.375000 0.667549
vt 0.571028 0.667549
vt 0.602106 0.055894
vt 0.571028 0.055894
vt 0.625000 0.055894
vt 0.875000 0.625000
vt 0.625000 0.667549
vt 0.125000 0.667549
vt 0.602106 0.667549
vt 0.625000 0.000000
vt 0.602106 0.027028
vt 0.602106 0.000000
vt 0.571028 0.027028
vt 0.571028 0.000000
vt 0.534552 0.000000
vt 0.375000 0.027028
vt 0.375000 0.000000
vt 0.534552 0.698398
vt 0.375000 0.698398
vt 0.570684 0.560847
vt 0.570684 0.578366
vt 0.875000 0.698398
vt 0.625000 0.698398
vt 0.125000 0.698398
vt 0.602106 0.698398
vt 0.539394 0.697850
vt 0.565449 0.697850
vt 0.570641 0.672391
vt 0.597264 0.672391
vt 0.534552 0.531789
vt 0.534552 0.554914
vt 0.564967 0.722972
vt 0.564967 0.667549
vt 0.534552 0.667549
vt 0.602106 0.554914
vt 0.565449 0.718130
vt 0.539394 0.718130
vt 0.570641 0.718130
vt 0.570641 0.697850
vt 0.602106 0.694106
vt 0.375000 0.694106
vt 0.125000 0.694106
vt 0.875000 0.694106
vt 0.625000 0.694106
vt 0.534552 0.694106
vt 0.625000 0.027028
vt 0.602106 0.051602
vt 0.571028 0.051602
vt 0.534552 0.027028
vt 0.375000 0.051602
vt 0.597264 0.718130
vt 0.875000 0.667549
vt 0.597264 0.697850
vt 0.625000 0.051602
vt 0.534552 0.051602
vt 0.564967 0.582671
vt 0.875000 0.554914
vt 0.625000 0.554914
vt 0.375000 0.554914
vt 0.125000 0.554914
vt 0.539394 0.672391
vt 0.565449 0.672391
vt 0.625000 0.188416
vt 0.602106 0.188416
vt 0.571028 0.188416
vt 0.534552 0.167329
vt 0.375000 0.188416
vt 0.875000 0.531789
vt 0.564967 0.531789
vt 0.625000 0.195086
vt 0.534552 0.188416
vt 0.564967 0.188416
vt 0.564967 0.167329
vt 0.564967 0.051602
vt 0.564967 0.027028
vt 0.570641 0.694308
vt 0.565449 0.694308
vt 0.564967 0.055894
vt 0.564967 0.625000
vt 0.564967 0.125000
vt 0.564967 0.500000
vt 0.564967 0.195086
vt 0.564967 0.218211
vt 0.564967 0.250000
vt 0.564967 0.750000
vt 0.534552 1.000000
vt 0.564967 0.082451
vt 0.539394 0.694308
vt 0.570684 0.555306
vt 0.570684 0.536094
vt 0.538858 0.560847
vt 0.565395 0.560847
vt 0.597264 0.694308
vt 0.564967 0.000000
vt 0.564967 1.000000
vt 0.597801 0.560847
vt 0.597801 0.536094
vt 0.538858 0.555306
vt 0.538858 0.536094
vt 0.538858 0.578366
vt 0.597801 0.555306
vt 0.565395 0.578366
vt 0.597801 0.578366
vt 0.625000 1.000000
vt 0.875000 0.750000
vt 0.625000 0.125000
s 0
f 30/1/1 4/2/1 14/3/1
f 4/2/2 15/4/2 14/3/2
f 59/5/3 6/6/3 16/7/3
f 6/6/4 13/8/4 16/7/4
f 54/9/5 1/10/5 49/11/5
f 53/12/6 6/6/6 50/13/6
f 37/14/7 12/15/7 34/16/7
f 38/17/5 9/18/5 33/19/5
f 34/16/3 17/20/3 63/21/3
f 43/22/1 18/23/1 45/24/1
f 45/24/1 136/25/1 142/26/1
f 63/21/3 135/27/3 140/28/3
f 16/7/4 131/29/4 134/30/4
f 59/5/3 134/30/3 144/31/3
f 14/3/2 133/32/2 132/33/2
f 30/1/1 132/33/1 137/34/1
f 31/35/1 3/36/1 27/37/1
f 19/38/2 7/39/2 3/36/2
f 60/40/3 5/41/3 54/9/3
f 21/42/4 1/43/4 5/41/4
f 64/44/3 11/45/3 38/17/3
f 48/46/1 9/47/1 41/48/1
f 20/49/3 26/50/3 7/39/3
f 98/51/1 27/37/1 99/52/1
f 97/53/1 137/34/1 156/54/1
f 15/4/3 138/55/3 133/32/3
f 8/56/3 61/57/3 15/4/3
f 7/39/5 27/58/5 3/59/5
f 4/60/7 28/61/7 8/56/7
f 97/53/1 25/62/1 30/1/1
f 18/23/1 37/63/1 39/64/1
f 18/23/1 139/65/1 136/25/1
f 23/66/1 33/67/1 9/47/1
f 92/68/3 38/17/3 86/69/3
f 129/70/5 164/71/5 121/71/5
f 90/72/3 63/21/3 91/73/3
f 86/69/5 33/19/5 89/74/5
f 85/75/7 34/16/7 90/72/7
f 78/76/1 41/48/1 79/77/1
f 22/78/3 44/79/3 11/45/3
f 17/20/3 141/80/3 135/27/3
f 77/81/1 142/26/1 152/82/1
f 75/83/1 45/24/1 77/81/1
f 10/84/6 42/85/6 12/15/6
f 11/45/5 41/86/5 9/18/5
f 17/20/3 42/85/3 57/87/3
f 2/88/1 55/89/1 13/90/1
f 13/90/1 143/91/1 131/92/1
f 24/93/1 49/94/1 1/95/1
f 72/96/3 54/9/3 66/97/3
f 153/98/8 184/99/8 148/99/8
f 65/100/6 50/13/6 70/101/6
f 66/97/5 49/11/5 69/102/5
f 71/103/3 50/13/3 59/5/3
f 74/104/4 225/105/4 123/105/4
f 145/106/4 211/107/4 46/107/4
f 62/108/5 228/109/5 102/109/5
f 118/110/4 236/31/4 144/31/4
f 115/111/2 197/112/2 58/112/2
f 144/31/4 199/5/4 59/5/4
f 101/113/8 219/57/8 61/57/8
f 120/114/2 208/115/2 52/115/2
f 123/105/5 209/114/5 120/114/5
f 146/116/8 241/117/8 149/117/8
f 81/118/3 70/101/3 71/103/3
f 76/119/5 69/102/5 79/120/5
f 75/121/6 70/101/6 80/122/6
f 52/115/8 207/104/8 74/104/8
f 82/123/3 66/97/3 76/119/3
f 53/124/1 67/125/1 55/89/1
f 55/89/1 150/126/1 143/91/1
f 56/127/1 69/128/1 49/94/1
f 58/112/3 76/119/3 44/79/3
f 146/116/2 160/129/2 51/129/2
f 43/130/6 80/122/6 42/85/6
f 44/79/5 79/120/5 41/86/5
f 57/87/3 80/122/3 81/118/3
f 141/80/2 196/111/2 115/111/2
f 73/131/5 206/129/5 51/129/5
f 65/132/1 77/81/1 67/125/1
f 67/125/1 152/82/1 150/126/1
f 68/133/1 79/77/1 69/128/1
f 57/87/2 235/80/2 141/80/2
f 114/134/4 234/28/4 140/28/4
f 95/135/7 90/72/7 100/136/7
f 96/137/5 89/74/5 99/138/5
f 100/136/3 91/73/3 101/113/3
f 47/139/4 203/140/4 119/140/4
f 102/109/3 86/69/3 96/137/3
f 39/64/1 85/141/1 87/142/1
f 39/64/1 154/143/1 139/65/1
f 40/144/1 89/145/1 33/67/1
f 62/108/3 96/137/3 26/50/3
f 74/104/8 162/115/8 52/115/8
f 28/61/3 101/113/3 61/57/3
f 26/50/5 99/138/5 27/58/5
f 25/146/7 100/136/7 28/61/7
f 140/28/4 192/21/4 63/21/4
f 112/147/2 190/108/2 62/108/2
f 87/142/1 95/148/1 97/53/1
f 87/142/1 156/54/1 154/143/1
f 88/149/1 99/52/1 89/145/1
f 128/150/1 98/51/1 88/149/1
f 46/107/4 181/106/4 145/106/4
f 113/151/1 88/149/1 40/144/1
f 138/55/2 189/147/2 112/147/2
f 124/152/1 78/76/1 68/133/1
f 51/129/5 159/131/5 73/131/5
f 117/153/1 68/133/1 56/127/1
f 61/57/2 233/55/2 138/55/2
f 151/154/8 237/106/8 145/106/8
f 82/123/5 200/96/5 72/96/5
f 119/140/5 226/155/5 125/155/5
f 60/40/4 202/110/4 118/110/4
f 119/140/4 158/139/4 47/139/4
f 24/93/1 117/153/1 56/127/1
f 126/156/1 48/46/1 78/76/1
f 109/157/3 58/112/3 22/78/3
f 120/114/5 171/105/5 123/105/5
f 110/158/1 40/144/1 23/66/1
f 107/159/3 62/108/3 20/49/3
f 130/160/1 31/35/1 98/51/1
f 111/161/1 19/38/1 31/35/1
f 106/162/2 20/49/2 19/38/2
f 118/110/3 21/42/3 60/40/3
f 108/163/4 24/164/4 21/42/4
f 114/134/3 22/78/3 64/44/3
f 116/165/1 23/66/1 48/46/1
f 71/103/8 221/118/8 81/118/8
f 125/155/2 224/166/2 84/166/2
f 154/143/1 130/160/1 128/150/1
f 155/167/8 239/168/8 147/168/8
f 139/65/1 128/150/1 113/151/1
f 84/166/8 204/139/8 47/139/8
f 150/126/1 126/156/1 124/152/1
f 94/169/4 231/170/4 127/170/4
f 143/91/1 124/152/1 117/153/1
f 121/71/5 232/70/5 129/70/5
f 46/107/5 223/171/5 83/171/5
f 58/112/5 222/123/5 82/123/5
f 64/44/4 195/134/4 114/134/4
f 105/172/1 143/91/1 117/153/1
f 152/82/1 116/165/1 126/156/1
f 135/27/3 115/111/3 109/157/3
f 81/118/8 210/87/8 57/87/8
f 136/25/1 113/151/1 110/158/1
f 133/32/3 112/147/3 107/159/3
f 156/54/1 111/161/1 130/160/1
f 137/34/1 106/162/1 111/161/1
f 132/33/2 107/159/2 106/162/2
f 144/31/3 108/163/3 118/110/3
f 134/30/4 105/173/4 108/163/4
f 140/28/3 109/157/3 114/134/3
f 142/26/1 110/158/1 116/165/1
f 166/174/3 184/99/3 187/98/3
f 159/131/3 182/116/3 185/117/3
f 172/107/3 186/154/3 181/106/3
f 177/175/3 188/167/3 183/168/3
f 164/71/3 179/176/3 165/177/3
f 157/140/3 174/166/3 158/139/3
f 171/105/3 162/115/3 161/104/3
f 176/170/3 169/178/3 168/169/3
f 147/168/8 188/167/8 155/167/8
f 52/115/2 163/114/2 120/114/2
f 29/175/4 183/168/4 147/168/4
f 103/179/5 177/175/5 29/175/5
f 83/171/5 172/107/5 46/107/5
f 122/180/5 176/170/5 127/170/5
f 127/170/4 168/169/4 94/169/4
f 148/99/2 167/181/2 35/181/2
f 123/105/4 161/104/4 74/104/4
f 32/177/8 179/176/8 104/176/8
f 47/139/8 174/166/8 84/166/8
f 73/131/4 185/117/4 149/117/4
f 125/155/5 157/140/5 119/140/5
f 104/176/2 180/70/2 129/70/2
f 145/106/8 186/154/8 151/154/8
f 84/166/2 175/155/2 125/155/2
f 151/154/2 173/171/2 83/171/2
f 121/71/4 165/177/4 32/177/4
f 35/181/5 166/174/5 93/174/5
f 93/174/4 187/98/4 153/98/4
f 94/169/8 169/178/8 36/178/8
f 36/178/2 170/180/2 122/180/2
f 155/167/2 178/179/2 103/179/2
f 149/117/8 182/116/8 146/116/8
f 204/139/3 196/111/3 203/140/3
f 211/107/3 221/118/3 223/171/3
f 208/115/3 200/96/3 207/104/3
f 206/129/3 236/31/3 238/116/3
f 213/177/3 189/147/3 212/71/3
f 220/175/3 227/113/3 229/179/3
f 217/178/3 193/68/3 216/169/3
f 215/181/3 234/28/3 240/99/3
f 207/104/3 222/123/3 224/166/3
f 206/129/3 198/103/3 199/5/3
f 223/171/3 241/117/3 242/154/3
f 204/139/3 222/123/3 197/112/3
f 205/131/3 221/118/3 198/103/3
f 216/169/3 228/109/3 230/176/3
f 215/181/3 191/73/3 192/21/3
f 229/179/3 243/98/3 244/167/3
f 213/177/3 228/109/3 190/108/3
f 214/174/3 227/113/3 191/73/3
f 232/70/3 216/169/3 230/176/3
f 226/155/3 207/104/3 224/166/3
f 217/178/3 195/134/3 194/44/3
f 212/71/3 233/55/3 239/168/3
f 208/115/3 202/110/3 201/40/3
f 203/140/3 235/80/3 237/106/3
f 211/107/3 235/80/3 210/87/3
f 220/175/3 233/55/3 219/57/3
f 239/168/3 232/70/3 212/71/3
f 244/167/3 231/170/3 232/70/3
f 237/106/3 226/155/3 203/140/3
f 242/154/3 225/105/3 226/155/3
f 218/180/3 234/28/3 195/134/3
f 209/114/3 236/31/3 202/110/3
f 241/117/3 209/114/3 225/105/3
f 243/98/3 218/180/3 231/170/3
f 29/175/5 229/179/5 103/179/5
f 51/129/2 238/116/2 146/116/2
f 63/21/8 191/73/8 91/73/8
f 104/176/8 213/177/8 32/177/8
f 148/99/8 243/98/8 153/98/8
f 147/168/4 220/175/4 29/175/4
f 127/170/5 218/180/5 122/180/5
f 92/68/5 194/44/5 64/44/5
f 35/181/2 240/99/2 148/99/2
f 32/177/4 212/71/4 121/71/4
f 129/70/2 230/176/2 104/176/2
f 149/117/4 205/131/4 73/131/4
f 93/174/5 215/181/5 35/181/5
f 91/73/8 227/113/8 101/113/8
f 36/178/8 216/169/8 94/169/8
f 102/109/5 193/68/5 92/68/5
f 83/171/2 242/154/2 151/154/2
f 122/180/2 217/178/2 36/178/2
f 59/5/8 198/103/8 71/103/8
f 153/98/4 214/174/4 93/174/4
f 72/96/5 201/40/5 60/40/5
f 103/179/2 244/167/2 155/167/2
f 30/1/1 25/62/1 4/2/1
f 4/2/2 8/56/2 15/4/2
f 59/5/3 50/13/3 6/6/3
f 6/6/4 2/182/4 13/8/4
f 54/9/5 5/41/5 1/10/5
f 53/12/6 2/183/6 6/6/6
f 37/14/7 10/84/7 12/15/7
f 38/17/5 11/45/5 9/18/5
f 34/16/3 12/15/3 17/20/3
f 43/22/1 10/184/1 18/23/1
f 45/24/1 18/23/1 136/25/1
f 63/21/3 17/20/3 135/27/3
f 16/7/4 13/8/4 131/29/4
f 59/5/3 16/7/3 134/30/3
f 14/3/2 15/4/2 133/32/2
f 30/1/1 14/3/1 132/33/1
f 31/35/1 19/38/1 3/36/1
f 19/38/2 20/49/2 7/39/2
f 60/40/3 21/42/3 5/41/3
f 21/42/4 24/164/4 1/43/4
f 64/44/3 22/78/3 11/45/3
f 48/46/1 23/66/1 9/47/1
f 20/49/3 62/108/3 26/50/3
f 98/51/1 31/35/1 27/37/1
f 97/53/1 30/1/1 137/34/1
f 15/4/3 61/57/3 138/55/3
f 8/56/3 28/61/3 61/57/3
f 7/39/5 26/50/5 27/58/5
f 4/60/7 25/146/7 28/61/7
f 97/53/1 95/148/1 25/62/1
f 18/23/1 10/184/1 37/63/1
f 18/23/1 39/64/1 139/65/1
f 23/66/1 40/144/1 33/67/1
f 92/68/3 64/44/3 38/17/3
f 129/70/5 180/70/5 164/71/5
f 90/72/3 34/16/3 63/21/3
f 86/69/5 38/17/5 33/19/5
f 85/75/7 37/14/7 34/16/7
f 78/76/1 48/46/1 41/48/1
f 22/78/3 58/112/3 44/79/3
f 17/20/3 57/87/3 141/80/3
f 77/81/1 45/24/1 142/26/1
f 75/83/1 43/22/1 45/24/1
f 10/84/6 43/130/6 42/85/6
f 11/45/5 44/79/5 41/86/5
f 17/20/3 12/15/3 42/85/3
f 2/88/1 53/124/1 55/89/1
f 13/90/1 55/89/1 143/91/1
f 24/93/1 56/127/1 49/94/1
f 72/96/3 60/40/3 54/9/3
f 153/98/8 187/98/8 184/99/8
f 65/100/6 53/12/6 50/13/6
f 66/97/5 54/9/5 49/11/5
f 71/103/3 70/101/3 50/13/3
f 74/104/4 207/104/4 225/105/4
f 145/106/4 237/106/4 211/107/4
f 62/108/5 190/108/5 228/109/5
f 118/110/4 202/110/4 236/31/4
f 115/111/2 196/111/2 197/112/2
f 144/31/4 236/31/4 199/5/4
f 101/113/8 227/113/8 219/57/8
f 120/114/2 209/114/2 208/115/2
f 123/105/5 225/105/5 209/114/5
f 146/116/8 238/116/8 241/117/8
f 81/118/3 80/122/3 70/101/3
f 76/119/5 66/97/5 69/102/5
f 75/121/6 65/100/6 70/101/6
f 52/115/8 208/115/8 207/104/8
f 82/123/3 72/96/3 66/97/3
f 53/124/1 65/132/1 67/125/1
f 55/89/1 67/125/1 150/126/1
f 56/127/1 68/133/1 69/128/1
f 58/112/3 82/123/3 76/119/3
f 146/116/2 182/116/2 160/129/2
f 43/130/6 75/121/6 80/122/6
f 44/79/5 76/119/5 79/120/5
f 57/87/3 42/85/3 80/122/3
f 141/80/2 235/80/2 196/111/2
f 73/131/5 205/131/5 206/129/5
f 65/132/1 75/83/1 77/81/1
f 67/125/1 77/81/1 152/82/1
f 68/133/1 78/76/1 79/77/1
f 57/87/2 210/87/2 235/80/2
f 114/134/4 195/134/4 234/28/4
f 95/135/7 85/75/7 90/72/7
f 96/137/5 86/69/5 89/74/5
f 100/136/3 90/72/3 91/73/3
f 47/139/4 204/139/4 203/140/4
f 102/109/3 92/68/3 86/69/3
f 39/64/1 37/63/1 85/141/1
f 39/64/1 87/142/1 154/143/1
f 40/144/1 88/149/1 89/145/1
f 62/108/3 102/109/3 96/137/3
f 74/104/8 161/104/8 162/115/8
f 28/61/3 100/136/3 101/113/3
f 26/50/5 96/137/5 99/138/5
f 25/146/7 95/135/7 100/136/7
f 140/28/4 234/28/4 192/21/4
f 112/147/2 189/147/2 190/108/2
f 87/142/1 85/141/1 95/148/1
f 87/142/1 97/53/1 156/54/1
f 88/149/1 98/51/1 99/52/1
f 128/150/1 130/160/1 98/51/1
f 46/107/4 172/107/4 181/106/4
f 113/151/1 128/150/1 88/149/1
f 138/55/2 233/55/2 189/147/2
f 124/152/1 126/156/1 78/76/1
f 51/129/5 160/129/5 159/131/5
f 117/153/1 124/152/1 68/133/1
f 61/57/2 219/57/2 233/55/2
f 151/154/8 242/154/8 237/106/8
f 82/123/5 222/123/5 200/96/5
f 119/140/5 203/140/5 226/155/5
f 60/40/4 201/40/4 202/110/4
f 119/140/4 157/140/4 158/139/4
f 24/93/1 105/172/1 117/153/1
f 126/156/1 116/165/1 48/46/1
f 109/157/3 115/111/3 58/112/3
f 120/114/5 163/114/5 171/105/5
f 110/158/1 113/151/1 40/144/1
f 107/159/3 112/147/3 62/108/3
f 130/160/1 111/161/1 31/35/1
f 111/161/1 106/162/1 19/38/1
f 106/162/2 107/159/2 20/49/2
f 118/110/3 108/163/3 21/42/3
f 108/163/4 105/173/4 24/164/4
f 114/134/3 109/157/3 22/78/3
f 116/165/1 110/158/1 23/66/1
f 71/103/8 198/103/8 221/118/8
f 125/155/2 226/155/2 224/166/2
f 154/143/1 156/54/1 130/160/1
f 155/167/8 244/167/8 239/168/8
f 139/65/1 154/143/1 128/150/1
f 84/166/8 224/166/8 204/139/8
f 150/126/1 152/82/1 126/156/1
f 94/169/4 216/169/4 231/170/4
f 143/91/1 150/126/1 124/152/1
f 121/71/5 212/71/5 232/70/5
f 46/107/5 211/107/5 223/171/5
f 58/112/5 197/112/5 222/123/5
f 64/44/4 194/44/4 195/134/4
f 105/172/1 131/92/1 143/91/1
f 152/82/1 142/26/1 116/165/1
f 135/27/3 141/80/3 115/111/3
f 81/118/8 221/118/8 210/87/8
f 136/25/1 139/65/1 113/151/1
f 133/32/3 138/55/3 112/147/3
f 156/54/1 137/34/1 111/161/1
f 137/34/1 132/33/1 106/162/1
f 132/33/2 133/32/2 107/159/2
f 144/31/3 134/30/3 108/163/3
f 134/30/4 131/29/4 105/173/4
f 140/28/3 135/27/3 109/157/3
f 142/26/1 136/25/1 110/158/1
f 166/174/3 167/181/3 184/99/3
f 159/131/3 160/129/3 182/116/3
f 172/107/3 173/171/3 186/154/3
f 177/175/3 178/179/3 188/167/3
f 164/71/3 180/70/3 179/176/3
f 157/140/3 175/155/3 174/166/3
f 171/105/3 163/114/3 162/115/3
f 176/170/3 170/180/3 169/178/3
f 147/168/8 183/168/8 188/167/8
f 52/115/2 162/115/2 163/114/2
f 29/175/4 177/175/4 183/168/4
f 103/179/5 178/179/5 177/175/5
f 83/171/5 173/171/5 172/107/5
f 122/180/5 170/180/5 176/170/5
f 127/170/4 176/170/4 168/169/4
f 148/99/2 184/99/2 167/181/2
f 123/105/4 171/105/4 161/104/4
f 32/177/8 165/177/8 179/176/8
f 47/139/8 158/139/8 174/166/8
f 73/131/4 159/131/4 185/117/4
f 125/155/5 175/155/5 157/140/5
f 104/176/2 179/176/2 180/70/2
f 145/106/8 181/106/8 186/154/8
f 84/166/2 174/166/2 175/155/2
f 151/154/2 186/154/2 173/171/2
f 121/71/4 164/71/4 165/177/4
f 35/181/5 167/181/5 166/174/5
f 93/174/4 166/174/4 187/98/4
f 94/169/8 168/169/8 169/178/8
f 36/178/2 169/178/2 170/180/2
f 155/167/2 188/167/2 178/179/2
f 149/117/8 185/117/8 182/116/8
f 204/139/3 197/112/3 196/111/3
f 211/107/3 210/87/3 221/118/3
f 208/115/3 201/40/3 200/96/3
f 206/129/3 199/5/3 236/31/3
f 213/177/3 190/108/3 189/147/3
f 220/175/3 219/57/3 227/113/3
f 217/178/3 194/44/3 193/68/3
f 215/181/3 192/21/3 234/28/3
f 207/104/3 200/96/3 222/123/3
f 206/129/3 205/131/3 198/103/3
f 223/171/3 205/131/3 241/117/3
f 204/139/3 224/166/3 222/123/3
f 205/131/3 223/171/3 221/118/3
f 216/169/3 193/68/3 228/109/3
f 215/181/3 214/174/3 191/73/3
f 229/179/3 214/174/3 243/98/3
f 213/177/3 230/176/3 228/109/3
f 214/174/3 229/179/3 227/113/3
f 232/70/3 231/170/3 216/169/3
f 226/155/3 225/105/3 207/104/3
f 217/178/3 218/180/3 195/134/3
f 212/71/3 189/147/3 233/55/3
f 208/115/3 209/114/3 202/110/3
f 203/140/3 196/111/3 235/80/3
f 211/107/3 237/106/3 235/80/3
f 220/175/3 239/168/3 233/55/3
f 239/168/3 244/167/3 232/70/3
f 244/167/3 243/98/3 231/170/3
f 237/106/3 242/154/3 226/155/3
f 242/154/3 241/117/3 225/105/3
f 218/180/3 240/99/3 234/28/3
f 209/114/3 238/116/3 236/31/3
f 241/117/3 238/116/3 209/114/3
f 243/98/3 240/99/3 218/180/3
f 29/175/5 220/175/5 229/179/5
f 51/129/2 206/129/2 238/116/2
f 63/21/8 192/21/8 191/73/8
f 104/176/8 230/176/8 213/177/8
f 148/99/8 240/99/8 243/98/8
f 147/168/4 239/168/4 220/175/4
f 127/170/5 231/170/5 218/180/5
f 92/68/5 193/68/5 194/44/5
f 35/181/2 215/181/2 240/99/2
f 32/177/4 213/177/4 212/71/4
f 129/70/2 232/70/2 230/176/2
f 149/117/4 241/117/4 205/131/4
f 93/174/5 214/174/5 215/181/5
f 91/73/8 191/73/8 227/113/8
f 36/178/8 217/178/8 216/169/8
f 102/109/5 228/109/5 193/68/5
f 83/171/2 223/171/2 242/154/2
f 122/180/2 218/180/2 217/178/2
f 59/5/8 199/5/8 198/103/8
f 153/98/4 243/98/4 214/174/4
f 72/96/5 200/96/5 201/40/5
f 103/179/2 229/179/2 244/167/2
o Cube.001
v -5.230907 1.398483 -5.273351
v -5.230907 1.398483 2.332954
v 0.049610 5.359397 -5.273351
v 5.330127 1.398483 -5.273351
v 0.049610 5.359397 2.332954
v 5.330127 1.398483 2.332954
v -5.063243 1.282537 -5.273351
v -5.063243 1.282537 2.332954
v 0.049610 5.117686 -5.273351
v 5.162463 1.282537 -5.273351
v 0.049610 5.117686 2.332954
v 5.162463 1.282537 2.332954
vn -0.6001 0.8000 -0.0000
vn 0.6001 0.8000 -0.0000
vn 0.6001 -0.8000 -0.0000
vn -0.6001 -0.8000 -0.0000
vn -0.5688 -0.8225 -0.0000
vn -0.0000 -0.0000 -1.0000
vn -0.0000 -0.0000 1.0000
vn 0.5688 -0.8225 -0.0000
vt 0.875000 0.625000
vt 0.625000 0.750000
vt 0.625000 0.625000
vt 0.875000 0.500000
vt 0.625000 0.500000
vt 0.875000 0.750000
s 0
f 247/185/9 246/186/9 249/187/9
f 248/188/10 249/187/10 250/189/10
f 252/186/11 253/185/11 255/187/11
f 255/187/12 254/188/12 256/189/12
f 245/190/13 252/186/13 246/186/13
f 245/190/14 253/185/14 251/190/14
f 248/188/14 253/185/14 247/185/14
f 246/186/15 255/187/15 249/187/15
f 250/189/15 255/187/15 256/189/15
f 250/189/16 254/188/16 248/188/16
f 247/185/9 245/190/9 246/186/9
f 248/188/10 247/185/10 249/187/10
f 252/186/11 251/190/11 253/185/11
f 255/187/12 253/185/12 254/188/12
f 245/190/13 251/190/13 252/186/13
f 245/190/14 247/185/14 253/185/14
f 248/188/14 254/188/14 253/185/14
f 246/186/15 252/186/15 255/187/15
f 250/189/15 249/187/15 255/187/15
f 250/189/16 256/189/16 254/188/16
