# Blender 4.4.3
# www.blender.org
mtllib Table.mtl
o Cube
v -2.851027 -0.973584 1.035630
v -2.851027 0.973584 1.035630
v -2.851027 -0.973584 -1.035630
v -2.851027 0.973584 -1.035630
v 2.851027 -0.973584 1.035630
v 2.851027 0.973584 1.035630
v 2.851027 -0.973584 -1.035630
v 2.851027 0.973584 -1.035630
v 2.851027 -0.973584 -1.035630
v 2.851027 0.973584 -1.035630
v 2.851027 -0.973584 1.035630
v 2.851027 0.973584 1.035630
v -2.447124 -0.973584 -1.035630
v -2.447124 0.973584 1.035630
v -2.447124 0.973584 -1.035630
v -2.447124 -0.973584 1.035630
v 2.428875 0.973584 -1.035630
v 2.428875 -0.973584 1.035630
v 2.428875 -0.973584 -1.035630
v 2.428875 0.973584 1.035630
v -2.851027 -0.973584 0.755458
v -2.851027 0.973584 0.755458
v 2.851027 -0.973584 0.755458
v 2.851027 0.973584 0.755458
v 2.851027 0.973584 0.755458
v 2.851027 -0.973584 0.755458
v -2.447124 -0.973584 0.755458
v -2.447124 0.973584 0.755458
v 2.428875 0.973584 0.755458
v 2.428875 -0.973584 0.755458
v -2.851027 0.973584 -0.765539
v 2.851027 -0.973584 -0.765539
v -2.851027 -0.973584 -0.765539
v 2.851027 0.973584 -0.765539
v 2.851027 0.973584 -0.765539
v 2.851027 -0.973584 -0.765539
v -2.447124 -0.973584 -0.765539
v -2.447124 0.973584 -0.765539
v 2.428875 0.973584 -0.765539
v 2.428875 -0.973584 -0.765539
v -2.851027 0.720195 1.035630
v -2.851027 0.720195 -1.035630
v 2.851027 0.720195 -1.035630
v 2.851027 0.720195 1.035630
v 2.851027 0.720195 1.035630
v 2.851027 0.720195 -1.035630
v -2.447124 0.720195 -1.035630
v -2.447124 0.720195 1.035630
v 2.428875 0.720195 1.035630
v 2.428875 0.720195 -1.035630
v 2.851027 0.720195 0.755458
v -2.851027 0.720195 0.755458
v 2.851027 0.720195 -0.765539
v -2.851027 0.720195 -0.765539
v -2.447124 0.863272 -0.765539
v -2.447124 0.863272 0.755458
v 2.428875 0.863272 -0.765539
v 2.428875 0.863272 0.755458
v 2.428875 0.715461 -1.035630
v -2.447124 0.715461 -1.035630
v -2.447124 0.715461 -0.765539
v 2.428875 0.715461 -0.765539
v 2.851027 0.726710 -0.765539
v 2.851027 0.726710 0.755458
v 2.428875 0.726710 -0.765539
v 2.428875 0.726710 0.755458
v -2.447124 0.728863 0.755458
v -2.447124 0.728863 1.035630
v 2.428875 0.728863 1.035630
v 2.428875 0.728863 0.755458
v -2.851027 0.710146 -0.765539
v -2.851027 0.710146 0.755458
v -2.447124 0.710146 -0.765539
v -2.447124 0.710146 0.755458
vn -1.0000 -0.0000 -0.0000
vn -0.0000 1.0000 -0.0000
vn 1.0000 -0.0000 -0.0000
vn -0.0000 -0.0000 1.0000
vn -0.0000 -1.0000 -0.0000
vn -0.0000 -0.0000 -1.0000
vt 1.693769 1.556186
vt 2.116284 1.134537
vt 1.693769 1.134537
vt 1.852275 2.116284
vt -0.685593 1.556186
vt -1.123877 1.134537
vt -0.685593 1.134537
vt -1.158369 1.556186
vt -1.387885 1.134537
vt -1.158369 1.134537
vt 1.852275 -0.685593
vt 1.852275 -1.123877
vt -1.387885 -0.685593
vt -1.158369 -1.123877
vt -1.158369 -0.685593
vt 1.612389 -1.123877
vt 1.612389 -0.685593
vt 1.612389 1.556186
vt 1.852275 1.134537
vt 1.612389 1.134537
vt -1.387885 1.556186
vt -1.387885 -1.123877
vt 1.852275 1.556186
vt -1.158369 -1.683974
vt -1.387885 1.117816
vt -1.387885 -1.683974
vt 1.612389 1.693769
vt 1.852275 1.693769
vt -1.158369 1.693769
vt -1.387885 1.693769
vt -1.123877 1.556186
vt 2.116284 1.556186
vt -1.387885 2.116284
vt -1.158369 2.116284
vt 1.612389 2.116284
vt 1.612389 -1.683974
vt 1.852275 1.145378
vt 1.852275 -1.683974
vt 1.693769 -1.683974
vt 2.116284 -1.683974
vt -0.685593 -1.683974
vt -1.123877 -1.683974
vt -0.685593 1.148961
vt 1.612389 1.145378
vt -1.123877 1.148961
vt 1.693769 1.126661
vt 2.116284 1.126661
vt -1.158369 1.117816
s 0
usemtl Wood.001
f 31/1/1 42/2/1 54/3/1
f 46/4/2 8/4/2 43/4/2
f 24/5/3 44/6/3 51/7/3
f 14/8/4 41/9/4 48/10/4
f 26/11/2 5/12/2 11/12/2
f 22/13/2 14/14/2 28/15/2
f 24/11/2 12/12/2 6/12/2
f 26/11/5 18/16/5 30/17/5
f 44/12/2 12/12/2 45/12/2
f 17/18/6 46/19/6 50/20/6
f 4/21/6 47/10/6 42/9/6
f 27/15/5 1/22/5 21/13/5
f 28/15/2 20/16/2 29/17/2
f 20/18/4 48/10/4 49/20/4
f 12/23/4 49/20/4 45/19/4
f 29/17/2 12/12/2 25/11/2
f 15/8/6 50/20/6 47/10/6
f 37/24/4 71/25/4 33/26/4
f 39/27/2 25/11/2 35/28/2
f 38/29/2 29/17/2 39/27/2
f 70/17/5 68/14/5 67/15/5
f 34/28/2 25/11/2 24/11/2
f 31/30/2 28/15/2 38/29/2
f 34/1/3 51/7/3 53/3/3
f 2/31/1 52/7/1 41/6/1
f 8/32/3 53/3/3 43/2/3
f 9/4/2 32/28/2 36/28/2
f 4/33/2 38/29/2 15/34/2
f 8/4/2 35/28/2 34/28/2
f 9/4/5 40/27/5 19/35/5
f 13/34/5 33/30/5 3/33/5
f 15/34/2 39/27/2 17/35/2
f 17/35/2 35/28/2 10/4/2
f 30/36/6 64/37/6 26/38/6
f 22/5/1 54/3/1 52/7/1
f 43/2/3 32/39/3 7/40/3
f 41/6/1 21/41/1 1/42/1
f 18/42/1 70/43/1 30/41/1
f 36/38/4 65/44/4 40/36/4
f 45/19/4 18/36/4 11/38/4
f 42/9/6 13/24/6 3/26/6
f 50/20/6 9/38/6 19/36/6
f 5/12/2 45/12/2 11/12/2
f 48/10/4 1/26/4 16/24/4
f 51/7/3 5/42/3 23/41/3
f 9/4/2 43/4/2 7/4/2
f 54/3/1 3/40/1 33/39/1
f 27/41/3 68/45/3 16/42/3
f 63/28/5 66/17/5 65/27/5
f 73/29/5 72/13/5 71/30/5
f 59/35/5 61/29/5 60/34/5
f 13/40/3 61/46/3 37/39/3
f 40/39/1 59/47/1 19/40/1
f 21/26/6 74/48/6 27/24/6
f 31/1/1 4/32/1 42/2/1
f 46/4/2 10/4/2 8/4/2
f 24/5/3 6/31/3 44/6/3
f 14/8/4 2/21/4 41/9/4
f 26/11/2 23/11/2 5/12/2
f 22/13/2 2/22/2 14/14/2
f 24/11/2 25/11/2 12/12/2
f 26/11/5 11/12/5 18/16/5
f 44/12/2 6/12/2 12/12/2
f 17/18/6 10/23/6 46/19/6
f 4/21/6 15/8/6 47/10/6
f 27/15/5 16/14/5 1/22/5
f 28/15/2 14/14/2 20/16/2
f 20/18/4 14/8/4 48/10/4
f 12/23/4 20/18/4 49/20/4
f 29/17/2 20/16/2 12/12/2
f 15/8/6 17/18/6 50/20/6
f 37/24/4 73/48/4 71/25/4
f 39/27/2 29/17/2 25/11/2
f 38/29/2 28/15/2 29/17/2
f 70/17/5 69/16/5 68/14/5
f 34/28/2 35/28/2 25/11/2
f 31/30/2 22/13/2 28/15/2
f 34/1/3 24/5/3 51/7/3
f 2/31/1 22/5/1 52/7/1
f 8/32/3 34/1/3 53/3/3
f 9/4/2 7/4/2 32/28/2
f 4/33/2 31/30/2 38/29/2
f 8/4/2 10/4/2 35/28/2
f 9/4/5 36/28/5 40/27/5
f 13/34/5 37/29/5 33/30/5
f 15/34/2 38/29/2 39/27/2
f 17/35/2 39/27/2 35/28/2
f 30/36/6 66/44/6 64/37/6
f 22/5/1 31/1/1 54/3/1
f 43/2/3 53/3/3 32/39/3
f 41/6/1 52/7/1 21/41/1
f 18/42/1 69/45/1 70/43/1
f 36/38/4 63/37/4 65/44/4
f 45/19/4 49/20/4 18/36/4
f 42/9/6 47/10/6 13/24/6
f 50/20/6 46/19/6 9/38/6
f 5/12/2 44/12/2 45/12/2
f 48/10/4 41/9/4 1/26/4
f 51/7/3 44/6/3 5/42/3
f 9/4/2 46/4/2 43/4/2
f 54/3/1 42/2/1 3/40/1
f 27/41/3 67/43/3 68/45/3
f 63/28/5 64/11/5 66/17/5
f 73/29/5 74/15/5 72/13/5
f 59/35/5 62/27/5 61/29/5
f 13/40/3 60/47/3 61/46/3
f 40/39/1 62/46/1 59/47/1
f 21/26/6 72/25/6 74/48/6
l 57 58
l 58 56
l 57 55
