# Blender 4.4.3
# www.blender.org
mtllib Door.mtl
o Cube
v -1.000000 -2.082994 -0.108812
v -1.000000 2.082994 -0.108812
v 1.000000 -2.082994 -0.108812
v 1.000000 2.082994 -0.108812
v -1.000000 -2.082994 0.108812
v -1.000000 2.082994 0.108812
v 1.000000 -2.082994 0.108812
v 1.000000 2.082994 0.108812
v 0.700732 -2.082994 -0.108812
v 0.700732 2.082994 -0.108812
v 0.700732 -2.082994 0.108812
v 0.700732 2.082994 0.108812
v -0.728176 -2.082994 -0.108812
v -0.728176 2.082994 0.108812
v -0.728176 2.082994 -0.108812
v -0.728176 -2.082994 0.108812
v -1.000000 1.911221 -0.108812
v 1.000000 1.911221 -0.108812
v 1.000000 1.911221 0.108812
v -1.000000 1.911221 0.108812
v 0.700732 1.911221 0.108812
v 0.700732 1.911221 -0.108812
v -0.728176 1.911221 -0.108812
v -0.728176 1.911221 0.108812
v 1.000000 0.322107 -0.108812
v 1.000000 0.322107 0.108812
v -1.000000 0.322107 0.108812
v 0.700732 0.322107 0.108812
v 0.700732 0.322107 -0.108812
v -0.728176 0.322107 -0.108812
v -0.728176 0.322107 0.108812
v -1.000000 0.322107 -0.108812
v 1.000000 -0.234002 -0.108812
v 1.000000 -0.234002 0.108812
v -1.000000 -0.234002 0.108812
v 0.700732 -0.234002 0.108812
v 0.700732 -0.234002 -0.108812
v -0.728176 -0.234002 -0.108812
v -0.728176 -0.234002 0.108812
v -1.000000 -0.234003 -0.108812
v 1.000000 -1.894490 -0.108812
v 1.000000 -1.894490 0.108812
v -1.000000 -1.894490 0.108812
v 0.700732 -1.894490 0.108812
v 0.700732 -1.894490 -0.108812
v -0.728176 -1.894490 -0.108812
v -0.728176 -1.894490 0.108812
v -1.000000 -1.894490 -0.108812
v 0.632903 1.835788 0.002180
v -0.660347 1.835788 0.002180
v 0.632903 0.397541 0.002180
v -0.660347 0.397541 0.002180
v 0.625111 -0.321879 0.002180
v -0.652555 -0.321879 0.002180
v 0.625111 -1.806613 0.002180
v -0.652555 -1.806613 0.002180
v -1.000000 0.107936 -0.108812
v 1.000000 0.107936 -0.108812
v 1.000000 0.107936 0.108812
v -1.000000 0.107936 0.108812
v 0.700732 0.107936 0.108812
v 0.700732 0.107936 -0.108812
v -0.728176 0.107936 -0.108812
v -0.728176 0.107936 0.108812
v 1.000000 -0.018878 -0.108812
v 1.000000 -0.018878 0.108812
v -1.000000 -0.018878 0.108812
v 0.700732 -0.018878 0.108812
v 0.700732 -0.018878 -0.108812
v -0.728176 -0.018878 -0.108812
v -0.728176 -0.018878 0.108812
v -1.000000 -0.018878 -0.108812
v 0.939510 2.082994 -0.108812
v 0.939510 -2.082994 0.108812
v 0.939510 -2.082994 -0.108812
v 0.939510 2.082994 0.108812
v 0.939510 1.911221 0.108812
v 0.939510 1.911221 -0.108812
v 0.939510 0.322107 -0.108812
v 0.939510 0.322107 0.108812
v 0.939510 -0.234002 0.108812
v 0.939510 -0.234002 -0.108812
v 0.939510 -1.894490 -0.108812
v 0.939510 -1.894490 0.108812
v 0.939510 0.107936 0.108812
v 0.939510 0.107936 -0.108812
v 0.939510 -0.018878 -0.108812
v 0.939510 -0.018878 0.108812
v 0.853259 -2.082994 -0.108812
v 0.853259 2.082994 0.108812
v 0.853259 1.911221 0.108812
v 0.853259 0.322107 0.108812
v 0.853259 -0.234002 0.108812
v 0.853259 -1.894490 0.108812
v 0.853259 0.107936 0.108812
v 0.853259 -0.018878 0.108812
v 0.853259 2.082994 -0.108812
v 0.853259 -2.082994 0.108812
v 0.853259 1.911221 -0.108812
v 0.853259 0.322107 -0.108812
v 0.853259 -0.234002 -0.108812
v 0.853259 -1.894490 -0.108812
v 0.853259 0.107936 -0.108812
v 0.853259 -0.018878 -0.108812
v 0.939510 0.107936 0.108789
v 0.939510 -0.018878 0.108789
v 0.853259 0.107936 0.108789
v 0.853259 -0.018878 0.108789
v 0.939510 0.107936 0.194231
v 0.939510 -0.018878 0.194231
v 0.853259 0.107936 0.194231
v 0.853259 -0.018878 0.194231
v 0.757318 0.107936 0.301272
v 0.757318 -0.018878 0.301272
v 0.764884 0.107936 0.215354
v 0.764884 -0.018878 0.215354
v 0.568553 0.107936 0.284649
v 0.568553 -0.018878 0.284649
v 0.576119 0.107936 0.198731
v 0.576119 -0.018878 0.198731
vn -0.0000 -0.0000 -1.0000
vn 1.0000 -0.0000 -0.0000
vn -0.0000 -0.0000 1.0000
vn -1.0000 -0.0000 -0.0000
vn -0.0000 -1.0000 -0.0000
vn -0.0000 1.0000 -0.0000
vn -0.0000 -0.8164 0.5775
vn 0.8157 -0.0000 0.5785
vn -0.8438 -0.0000 0.5367
vn 0.8438 -0.0000 0.5367
vn -0.0000 0.8164 0.5775
vn -0.0000 0.7717 0.6360
vn -0.0000 -0.7717 0.6360
vn -0.8157 -0.0000 0.5785
vn 0.5066 -0.0000 0.8622
vn -0.2325 -0.0000 -0.9726
vn -0.9961 -0.0000 -0.0877
vn -0.0877 -0.0000 0.9961
vn 0.0877 -0.0000 -0.9961
vt 0.625000 0.242439
vt 0.614692 0.250000
vt 0.614692 0.242439
vt 0.625000 0.250000
vt 0.614692 0.500000
vt 0.625000 0.716022
vt 0.614692 0.750000
vt 0.614692 0.716022
vt 0.625000 0.750000
vt 0.614692 1.000000
vt 0.375000 0.716022
vt 0.125000 0.750000
vt 0.125000 0.716022
vt 0.875000 0.716022
vt 0.875000 0.518343
vt 0.625000 0.537408
vt 0.625000 0.518343
vt 0.375000 0.518343
vt 0.125000 0.537408
vt 0.125000 0.518343
vt 0.614692 0.537408
vt 0.614692 0.518343
vt 0.625000 0.033978
vt 0.614692 0.212591
vt 0.614692 0.033978
vt 0.625000 0.000000
vt 0.614692 0.000000
vt 0.875000 0.537408
vt 0.375000 0.537408
vt 0.519330 0.033978
vt 0.519330 0.000000
vt 0.519330 0.212591
vt 0.519330 0.537408
vt 0.519330 0.518343
vt 0.519330 1.000000
vt 0.519330 0.750000
vt 0.519330 0.716022
vt 0.519330 0.500000
vt 0.519330 0.250000
vt 0.519330 0.242439
vt 0.506477 0.250000
vt 0.506477 0.242439
vt 0.506477 0.500000
vt 0.506477 0.750000
vt 0.506477 0.716022
vt 0.506477 1.000000
vt 0.506477 0.537408
vt 0.506477 0.518343
vt 0.506477 0.212591
vt 0.506477 0.033978
vt 0.506477 0.000000
vt 0.386312 0.716022
vt 0.485958 0.716022
vt 0.485958 0.000000
vt 0.386312 0.033978
vt 0.386312 0.000000
vt 0.485958 0.033978
vt 0.386312 0.212591
vt 0.485958 0.518343
vt 0.386312 0.537408
vt 0.386312 0.518343
vt 0.485958 0.750000
vt 0.386312 1.000000
vt 0.386312 0.750000
vt 0.485958 0.250000
vt 0.386312 0.500000
vt 0.386312 0.250000
vt 0.485958 0.242439
vt 0.386312 0.242439
vt 0.375000 0.250000
vt 0.375000 0.242439
vt 0.375000 0.500000
vt 0.375000 0.750000
vt 0.375000 1.000000
vt 0.375000 0.212591
vt 0.375000 0.033978
vt 0.375000 0.000000
vt 0.485958 0.537408
vt 0.498867 0.716022
vt 0.498867 0.537408
vt 0.498867 0.033978
vt 0.498867 0.000000
vt 0.498867 0.212591
vt 0.498867 0.518343
vt 0.498867 1.000000
vt 0.498867 0.750000
vt 0.498867 0.500000
vt 0.498867 0.250000
vt 0.498867 0.242439
vt 0.485958 0.500000
vt 0.485958 1.000000
vt 0.485958 0.212591
vt 0.485958 0.507561
vt 0.498867 0.231657
vt 0.485958 0.231657
vt 0.506477 0.231657
vt 0.498867 0.507561
vt 0.375000 0.507561
vt 0.386312 0.231657
vt 0.375000 0.231657
vt 0.386312 0.507561
vt 0.506477 0.507561
vt 0.519330 0.231657
vt 0.614692 0.231657
vt 0.519330 0.507561
vt 0.625000 0.500000
vt 0.614692 0.507561
vt 0.125000 0.507561
vt 0.125000 0.500000
vt 0.875000 0.500000
vt 0.625000 0.507561
vt 0.625000 0.231657
vt 0.625000 0.212591
vt 0.875000 0.507561
vt 0.625000 1.000000
vt 0.875000 0.750000
s 0
f 73/1/1 18/2/1 78/3/1
f 4/4/2 19/5/2 18/2/2
f 14/6/3 20/7/3 24/8/3
f 6/9/4 17/10/4 20/7/4
f 16/11/5 1/12/5 13/13/5
f 15/14/6 6/9/6 14/6/6
f 97/15/6 12/16/6 90/17/6
f 98/18/5 9/19/5 89/20/5
f 90/17/3 21/21/3 91/22/3
f 15/23/1 22/24/1 23/25/1
f 2/26/1 23/25/1 17/27/1
f 10/28/6 14/6/6 12/16/6
f 11/29/5 13/13/5 9/19/5
f 12/16/3 24/8/3 21/21/3
f 24/8/7 49/21/7 21/21/7
f 17/27/1 30/30/1 32/31/1
f 23/25/1 29/32/1 30/30/1
f 91/22/3 28/33/3 92/34/3
f 20/7/4 32/35/4 27/36/4
f 24/8/3 27/36/3 31/37/3
f 18/2/2 26/38/2 25/39/2
f 78/3/1 25/39/1 79/40/1
f 79/40/1 58/41/1 86/42/1
f 25/39/2 59/43/2 58/41/2
f 31/37/3 60/44/3 64/45/3
f 27/36/4 57/46/4 60/44/4
f 92/34/3 61/47/3 95/48/3
f 30/30/1 62/49/1 63/50/1
f 57/51/1 30/30/1 63/50/1
f 28/33/3 64/45/3 61/47/3
f 47/52/8 54/53/8 39/53/8
f 40/54/1 46/55/1 48/56/1
f 38/57/1 45/58/1 46/55/1
f 93/59/3 44/60/3 94/61/3
f 35/62/4 48/63/4 43/64/4
f 39/53/3 43/64/3 47/52/3
f 33/65/2 42/66/2 41/67/2
f 82/68/1 41/67/1 83/69/1
f 83/69/1 3/70/1 75/71/1
f 41/67/2 7/72/2 3/70/2
f 47/52/3 5/73/3 16/11/3
f 43/64/4 1/74/4 5/73/4
f 94/61/3 11/29/3 98/18/3
f 46/55/1 9/75/1 13/76/1
f 48/56/1 13/76/1 1/77/1
f 44/60/3 16/11/3 11/29/3
f 49/21/3 52/37/3 51/33/3
f 28/33/9 49/21/9 51/33/9
f 31/37/10 50/8/10 24/8/10
f 28/33/11 52/37/11 31/37/11
f 53/78/3 56/52/3 55/60/3
f 44/60/12 56/52/12 47/52/12
f 36/78/13 54/53/13 53/78/13
f 36/78/14 55/60/14 44/60/14
f 61/47/3 71/79/3 68/80/3
f 57/51/1 70/81/1 72/82/1
f 63/50/1 69/83/1 70/81/1
f 95/48/3 68/80/3 96/84/3
f 60/44/4 72/85/4 67/86/4
f 64/45/3 67/86/3 71/79/3
f 58/41/2 66/87/2 65/88/2
f 86/42/1 65/88/1 87/89/1
f 87/89/1 33/65/1 82/68/1
f 65/88/2 34/90/2 33/65/2
f 71/79/3 35/62/3 39/53/3
f 67/86/4 40/91/4 35/62/4
f 96/84/3 36/78/3 93/59/3
f 70/81/1 37/92/1 38/57/1
f 72/82/1 38/57/1 40/54/1
f 68/80/3 39/53/3 36/78/3
f 66/87/3 81/93/3 34/90/3
f 104/94/1 82/68/1 101/95/1
f 103/96/1 87/89/1 104/94/1
f 59/43/3 88/97/3 66/87/3
f 42/66/3 74/98/3 7/72/3
f 102/99/1 75/71/1 89/100/1
f 101/95/1 83/69/1 102/99/1
f 34/90/3 84/101/3 42/66/3
f 26/38/3 85/102/3 59/43/3
f 100/103/1 86/42/1 103/96/1
f 99/104/1 79/40/1 100/103/1
f 19/5/3 80/105/3 26/38/3
f 8/106/3 77/107/3 19/5/3
f 7/72/5 75/108/5 3/109/5
f 4/110/6 76/111/6 8/106/6
f 97/112/1 78/3/1 99/104/1
f 10/113/1 99/104/1 22/24/1
f 22/24/1 100/103/1 29/32/1
f 29/32/1 103/96/1 62/49/1
f 37/92/1 102/99/1 45/58/1
f 45/58/1 89/100/1 9/75/1
f 62/49/1 104/94/1 69/83/1
f 69/83/1 101/95/1 37/92/1
f 88/97/3 93/59/3 81/93/3
f 96/84/2 107/48/2 95/48/2
f 84/101/3 98/18/3 74/98/3
f 81/93/3 94/61/3 84/101/3
f 80/105/3 95/48/3 85/102/3
f 77/107/3 92/34/3 80/105/3
f 76/111/3 91/22/3 77/107/3
f 74/98/5 89/20/5 75/108/5
f 73/114/6 90/17/6 76/111/6
f 108/84/4 111/48/4 107/48/4
f 85/102/4 106/97/4 88/97/4
f 88/97/6 108/84/6 96/84/6
f 95/48/5 105/102/5 85/102/5
f 110/97/5 116/84/5 112/84/5
f 107/48/6 109/102/6 105/102/6
f 106/97/5 112/84/5 108/84/5
f 105/102/2 110/97/2 106/97/2
f 115/48/6 117/102/6 113/102/6
f 109/102/15 114/97/15 110/97/15
f 112/84/16 115/48/16 111/48/16
f 109/102/6 115/48/6 113/102/6
f 117/102/17 120/84/17 118/97/17
f 116/84/5 118/97/5 120/84/5
f 113/102/18 118/97/18 114/97/18
f 116/84/19 119/48/19 115/48/19
f 73/1/1 4/4/1 18/2/1
f 4/4/2 8/106/2 19/5/2
f 14/6/3 6/9/3 20/7/3
f 6/9/4 2/115/4 17/10/4
f 16/11/5 5/73/5 1/12/5
f 15/14/6 2/116/6 6/9/6
f 97/15/6 10/28/6 12/16/6
f 98/18/5 11/29/5 9/19/5
f 90/17/3 12/16/3 21/21/3
f 15/23/1 10/113/1 22/24/1
f 2/26/1 15/23/1 23/25/1
f 10/28/6 15/14/6 14/6/6
f 11/29/5 16/11/5 13/13/5
f 12/16/3 14/6/3 24/8/3
f 24/8/7 50/8/7 49/21/7
f 17/27/1 23/25/1 30/30/1
f 23/25/1 22/24/1 29/32/1
f 91/22/3 21/21/3 28/33/3
f 20/7/4 17/10/4 32/35/4
f 24/8/3 20/7/3 27/36/3
f 18/2/2 19/5/2 26/38/2
f 78/3/1 18/2/1 25/39/1
f 79/40/1 25/39/1 58/41/1
f 25/39/2 26/38/2 59/43/2
f 31/37/3 27/36/3 60/44/3
f 27/36/4 32/35/4 57/46/4
f 92/34/3 28/33/3 61/47/3
f 30/30/1 29/32/1 62/49/1
f 57/51/1 32/31/1 30/30/1
f 28/33/3 31/37/3 64/45/3
f 47/52/8 56/52/8 54/53/8
f 40/54/1 38/57/1 46/55/1
f 38/57/1 37/92/1 45/58/1
f 93/59/3 36/78/3 44/60/3
f 35/62/4 40/91/4 48/63/4
f 39/53/3 35/62/3 43/64/3
f 33/65/2 34/90/2 42/66/2
f 82/68/1 33/65/1 41/67/1
f 83/69/1 41/67/1 3/70/1
f 41/67/2 42/66/2 7/72/2
f 47/52/3 43/64/3 5/73/3
f 43/64/4 48/63/4 1/74/4
f 94/61/3 44/60/3 11/29/3
f 46/55/1 45/58/1 9/75/1
f 48/56/1 46/55/1 13/76/1
f 44/60/3 47/52/3 16/11/3
f 49/21/3 50/8/3 52/37/3
f 28/33/9 21/21/9 49/21/9
f 31/37/10 52/37/10 50/8/10
f 28/33/11 51/33/11 52/37/11
f 53/78/3 54/53/3 56/52/3
f 44/60/12 55/60/12 56/52/12
f 36/78/13 39/53/13 54/53/13
f 36/78/14 53/78/14 55/60/14
f 61/47/3 64/45/3 71/79/3
f 57/51/1 63/50/1 70/81/1
f 63/50/1 62/49/1 69/83/1
f 95/48/3 61/47/3 68/80/3
f 60/44/4 57/46/4 72/85/4
f 64/45/3 60/44/3 67/86/3
f 58/41/2 59/43/2 66/87/2
f 86/42/1 58/41/1 65/88/1
f 87/89/1 65/88/1 33/65/1
f 65/88/2 66/87/2 34/90/2
f 71/79/3 67/86/3 35/62/3
f 67/86/4 72/85/4 40/91/4
f 96/84/3 68/80/3 36/78/3
f 70/81/1 69/83/1 37/92/1
f 72/82/1 70/81/1 38/57/1
f 68/80/3 71/79/3 39/53/3
f 66/87/3 88/97/3 81/93/3
f 104/94/1 87/89/1 82/68/1
f 103/96/1 86/42/1 87/89/1
f 59/43/3 85/102/3 88/97/3
f 42/66/3 84/101/3 74/98/3
f 102/99/1 83/69/1 75/71/1
f 101/95/1 82/68/1 83/69/1
f 34/90/3 81/93/3 84/101/3
f 26/38/3 80/105/3 85/102/3
f 100/103/1 79/40/1 86/42/1
f 99/104/1 78/3/1 79/40/1
f 19/5/3 77/107/3 80/105/3
f 8/106/3 76/111/3 77/107/3
f 7/72/5 74/98/5 75/108/5
f 4/110/6 73/114/6 76/111/6
f 97/112/1 73/1/1 78/3/1
f 10/113/1 97/112/1 99/104/1
f 22/24/1 99/104/1 100/103/1
f 29/32/1 100/103/1 103/96/1
f 37/92/1 101/95/1 102/99/1
f 45/58/1 102/99/1 89/100/1
f 62/49/1 103/96/1 104/94/1
f 69/83/1 104/94/1 101/95/1
f 88/97/3 96/84/3 93/59/3
f 96/84/2 108/84/2 107/48/2
f 84/101/3 94/61/3 98/18/3
f 81/93/3 93/59/3 94/61/3
f 80/105/3 92/34/3 95/48/3
f 77/107/3 91/22/3 92/34/3
f 76/111/3 90/17/3 91/22/3
f 74/98/5 98/18/5 89/20/5
f 73/114/6 97/15/6 90/17/6
f 108/84/4 112/84/4 111/48/4
f 85/102/4 105/102/4 106/97/4
f 88/97/6 106/97/6 108/84/6
f 95/48/5 107/48/5 105/102/5
f 110/97/5 114/97/5 116/84/5
f 107/48/6 111/48/6 109/102/6
f 106/97/5 110/97/5 112/84/5
f 105/102/2 109/102/2 110/97/2
f 115/48/6 119/48/6 117/102/6
f 109/102/15 113/102/15 114/97/15
f 112/84/16 116/84/16 115/48/16
f 109/102/6 111/48/6 115/48/6
f 117/102/17 119/48/17 120/84/17
f 116/84/5 114/97/5 118/97/5
f 113/102/18 117/102/18 118/97/18
f 116/84/19 120/84/19 119/48/19
